<?xml version="1.0" encoding="utf-8"?>
<!-- Generator: Adobe Illustrator 26.4.1, SVG Export Plug-In . SVG Version: 6.00 Build 0)  -->
<svg version="1.1" id="Ebene_1" xmlns="http://www.w3.org/2000/svg" xmlns:xlink="http://www.w3.org/1999/xlink" x="0px" y="0px"
	 viewBox="0 0 566.9 254.2" style="enable-background:new 0 0 566.9 254.2;" xml:space="preserve">
<style type="text/css">
	.st0{fill:none;stroke:#000000;stroke-width:0.5;stroke-miterlimit:10;}
	.st1{fill:#5DFDCB;}
	.st2{fill:none;stroke:#1A1A1A;stroke-width:2;stroke-miterlimit:10;}
	.st3{fill:none;stroke:#1A1A1A;stroke-width:2;stroke-linecap:round;stroke-miterlimit:10;}
	.st4{fill:#FCF751;}
	.st5{fill:none;stroke:#1A1A1A;stroke-width:3;stroke-linecap:round;stroke-linejoin:round;}
	.st6{fill:#E237B1;stroke:#1A1A1A;stroke-width:3;stroke-linejoin:round;}
	.st7{fill:#E237B1;stroke:#1A1A1A;stroke-width:3;stroke-linecap:round;stroke-linejoin:round;}
	.st8{fill:none;}
	.st9{fill:none;stroke:#1A1A1A;stroke-width:3;stroke-linecap:round;stroke-linejoin:round;stroke-miterlimit:10;}
</style>
<g id="Logo">
	<g id="Ebene_2_1_">
		<g id="Ebene_1-2">
			<g id="_3D_schatten_links">
				<line class="st0" x1="37.4" y1="138.1" x2="46.6" y2="147.8"/>
				<line class="st0" x1="44.4" y1="137.1" x2="53.6" y2="146.7"/>
				<line class="st0" x1="51.7" y1="136.3" x2="60.9" y2="145.9"/>
				<line class="st0" x1="59" y1="135.6" x2="68.2" y2="145.2"/>
				<line class="st0" x1="66.6" y1="135.1" x2="75.8" y2="144.7"/>
				<line class="st0" x1="74" y1="134.5" x2="83.2" y2="144.2"/>
				<line class="st0" x1="81.2" y1="133.8" x2="90.4" y2="143.4"/>
				<line class="st0" x1="88.5" y1="133" x2="97.7" y2="142.6"/>
				<line class="st0" x1="95.8" y1="132.2" x2="104.9" y2="141.8"/>
				<line class="st0" x1="103.5" y1="132" x2="112.7" y2="141.6"/>
				<line class="st0" x1="110.5" y1="130.9" x2="119.7" y2="140.5"/>
				<line class="st0" x1="118.1" y1="130.3" x2="127.3" y2="139.9"/>
			</g>
			<polygon id="Schatten_Fuellung" class="st1" points="538.5,102.9 538.5,183.1 136.5,218.3 127.3,208.6 127.3,140.3 38.5,148.3 
				29.3,138.5 29.3,58.3 284.3,35.5 293.5,45.2 293.5,113.7 529.3,93.1 			"/>
			<g id="Scraffierung_links">
				<g id="_3D_schatten_links-2">
					<line class="st2" x1="37.4" y1="138.1" x2="46.1" y2="147.3"/>
					<line class="st2" x1="44.4" y1="137.1" x2="53.6" y2="146.7"/>
					<line class="st2" x1="51.7" y1="136.3" x2="60.9" y2="145.9"/>
					<line class="st2" x1="59" y1="135.6" x2="68.2" y2="145.2"/>
					<line class="st2" x1="66.6" y1="135.1" x2="75.8" y2="144.7"/>
					<line class="st2" x1="74" y1="134.5" x2="83.2" y2="144.2"/>
					<line class="st2" x1="81.2" y1="133.8" x2="90.4" y2="143.4"/>
					<line class="st2" x1="88.5" y1="133" x2="97.7" y2="142.6"/>
					<line class="st2" x1="95.8" y1="132.2" x2="104.9" y2="141.8"/>
					<line class="st2" x1="103.5" y1="132" x2="112.3" y2="141.2"/>
					<line class="st2" x1="110.5" y1="130.9" x2="119.7" y2="140.5"/>
					<line class="st2" x1="118.1" y1="130.3" x2="127.3" y2="139.9"/>
				</g>
			</g>
			<g id="Schraffierung_unten">
				<g id="_3D_schatten_links-3">
					<line class="st2" x1="135.4" y1="208.1" x2="144.6" y2="217.7"/>
					<line class="st2" x1="142.3" y1="207" x2="151.5" y2="216.6"/>
					<line class="st2" x1="149.6" y1="206.3" x2="158.8" y2="215.9"/>
					<line class="st2" x1="157" y1="205.6" x2="166.2" y2="215.2"/>
					<line class="st2" x1="164.5" y1="205.1" x2="173.7" y2="214.7"/>
					<line class="st2" x1="171.9" y1="204.5" x2="181.1" y2="214.1"/>
					<line class="st2" x1="179.2" y1="203.7" x2="188.4" y2="213.3"/>
					<line class="st2" x1="186.4" y1="203" x2="195.6" y2="212.6"/>
					<line class="st2" x1="193.7" y1="202.2" x2="202.9" y2="211.8"/>
					<line class="st2" x1="201.5" y1="201.9" x2="210.7" y2="211.6"/>
					<line class="st2" x1="208.4" y1="200.8" x2="217.6" y2="210.4"/>
					<line class="st2" x1="216" y1="200.3" x2="225.2" y2="209.9"/>
				</g>
				<g id="_3D_schatten_links-4">
					<line class="st2" x1="223.9" y1="199.8" x2="233.1" y2="209.4"/>
					<line class="st2" x1="231.1" y1="198.9" x2="240.3" y2="208.5"/>
					<line class="st2" x1="238.6" y1="198.4" x2="247.8" y2="208"/>
					<line class="st2" x1="246" y1="197.7" x2="255.2" y2="207.3"/>
					<line class="st2" x1="253.4" y1="197.1" x2="262.6" y2="206.7"/>
					<line class="st2" x1="260.7" y1="196.3" x2="269.9" y2="205.9"/>
					<line class="st2" x1="268" y1="195.6" x2="277.2" y2="205.2"/>
					<line class="st2" x1="275.5" y1="195.2" x2="284.8" y2="204.8"/>
					<line class="st2" x1="282.7" y1="194.3" x2="291.9" y2="203.9"/>
					<line class="st2" x1="290.2" y1="193.7" x2="299.4" y2="203.3"/>
					<line class="st2" x1="297.6" y1="193.2" x2="306.8" y2="202.8"/>
				</g>
				<g id="_3D_schatten_links-5">
					<line class="st2" x1="306.1" y1="193.1" x2="315.3" y2="202.8"/>
					<line class="st2" x1="313" y1="192.1" x2="322.2" y2="201.7"/>
					<line class="st2" x1="320.3" y1="191.3" x2="329.5" y2="200.9"/>
					<line class="st2" x1="327.7" y1="190.6" x2="336.9" y2="200.2"/>
					<line class="st2" x1="335.2" y1="190.1" x2="344.4" y2="199.8"/>
					<line class="st2" x1="342.6" y1="189.6" x2="351.9" y2="199.2"/>
					<line class="st2" x1="349.9" y1="188.8" x2="359.1" y2="198.4"/>
					<line class="st2" x1="357.2" y1="188" x2="366.4" y2="197.6"/>
					<line class="st2" x1="364.6" y1="187.4" x2="373.8" y2="197"/>
					<line class="st2" x1="372.2" y1="187" x2="381.4" y2="196.6"/>
					<line class="st2" x1="379.7" y1="186.4" x2="388.9" y2="196"/>
					<line class="st2" x1="387" y1="185.6" x2="396.2" y2="195.2"/>
				</g>
				<g id="_3D_schatten_links-6">
					<line class="st2" x1="394.9" y1="185" x2="404.1" y2="194.6"/>
					<line class="st2" x1="402.1" y1="184.1" x2="411.3" y2="193.8"/>
					<line class="st2" x1="409.6" y1="183.6" x2="418.8" y2="193.2"/>
					<line class="st2" x1="417" y1="183" x2="426.2" y2="192.6"/>
					<line class="st2" x1="424.4" y1="182.3" x2="433.6" y2="192"/>
					<line class="st2" x1="431.6" y1="181.6" x2="440.9" y2="191.2"/>
					<line class="st2" x1="439" y1="180.9" x2="448.2" y2="190.5"/>
					<line class="st2" x1="446.5" y1="180.4" x2="455.7" y2="190"/>
					<line class="st2" x1="453.7" y1="179.5" x2="462.9" y2="189.1"/>
					<line class="st2" x1="461.1" y1="179" x2="470.4" y2="188.6"/>
					<line class="st2" x1="468.6" y1="178.4" x2="477.8" y2="188"/>
				</g>
				<g id="_3D_schatten_links-7">
					<line class="st2" x1="476.2" y1="177.9" x2="485.4" y2="187.5"/>
					<line class="st2" x1="483.5" y1="177.2" x2="492.7" y2="186.8"/>
					<line class="st2" x1="490.7" y1="176.4" x2="499.9" y2="186"/>
					<line class="st2" x1="498.2" y1="175.8" x2="507.4" y2="185.5"/>
					<line class="st2" x1="505.6" y1="175.2" x2="514.8" y2="184.8"/>
					<line class="st2" x1="513" y1="174.6" x2="522.2" y2="184.2"/>
					<line class="st2" x1="520.2" y1="173.8" x2="529.4" y2="183.4"/>
				</g>
				<line class="st2" x1="529.3" y1="165.1" x2="538.5" y2="174.8"/>
				<line class="st2" x1="529.3" y1="157.1" x2="538.5" y2="166.8"/>
				<line class="st2" x1="529.3" y1="149.1" x2="538.5" y2="158.8"/>
				<line class="st2" x1="529.3" y1="141.1" x2="538.5" y2="150.8"/>
				<line class="st2" x1="529.3" y1="133.1" x2="538.5" y2="142.8"/>
				<line class="st2" x1="529.3" y1="125.1" x2="538.5" y2="134.8"/>
				<line class="st2" x1="529.3" y1="117.1" x2="538.5" y2="126.8"/>
				<line class="st2" x1="529.4" y1="109.3" x2="538.5" y2="118.8"/>
				<line class="st3" x1="529.8" y1="101.7" x2="538.1" y2="110.4"/>
			</g>
			<g id="Schraffierung_rechts_oben">
				<line class="st2" x1="284.3" y1="106.7" x2="291.2" y2="113.9"/>
				<line class="st2" x1="284.3" y1="98.7" x2="293.5" y2="108.3"/>
				<line class="st2" x1="284.3" y1="90.7" x2="293.5" y2="100.3"/>
				<line class="st2" x1="284.3" y1="82.7" x2="293.5" y2="92.3"/>
				<line class="st2" x1="284.3" y1="74.7" x2="293.5" y2="84.3"/>
				<line class="st2" x1="284.3" y1="66.7" x2="293.5" y2="76.3"/>
				<line class="st2" x1="284.3" y1="58.7" x2="293.5" y2="68.3"/>
				<line class="st2" x1="284.4" y1="50.8" x2="293.5" y2="60.3"/>
				<line class="st3" x1="284.8" y1="43.2" x2="293.2" y2="52"/>
			</g>
			<polygon id="Fuellung" class="st4" points="530,92.3 530,172.6 128,207.8 128,129 30,137.7 30,57.5 285,34.7 285,113.8 			"/>
			<path id="Kontur_00000018920193602781091360000009002735233351221667_" class="st5" d="M529.3,173.1"/>
			<path class="st6" d="M48.7,74.1l33.5-2.9v7.7L57.5,81v12l22.3-2v7.7l-22.3,2v17.4l-8.8,0.8C48.7,118.9,48.7,74.1,48.7,74.1z"/>
			<path class="st6" d="M99.5,69.6l23.8-2.1c3.9-0.3,7,0.4,9.4,2.3s3.7,4.9,3.6,7.9v4.5c0,2.2-0.6,4.3-1.9,6
				c-1.4,1.9-3.3,3.3-5.5,4.2v0.1c1.2,0.7,2.3,1.6,3.1,2.8c0.9,1.5,1.6,3,2.1,4.6l3.6,11.1l-9.1,0.8l-3.4-10.3
				c-0.4-1.5-1.2-2.8-2.3-3.9c-1-0.8-2.3-1.2-3.7-1l-10.8,1v16.1l-8.8,0.8L99.5,69.6z M121.7,88.8c1.6-0.1,3.1-0.7,4.2-1.8
				c1-1,1.6-2.4,1.5-3.9V79c0.1-1.1-0.4-2.1-1.2-2.9c-0.9-0.7-2-1-3.1-0.8l-14.8,1.3V90L121.7,88.8z"/>
			<path class="st6" d="M161.7,107.3c-2.5-1.2-4.6-3.1-6-5.5c-1.5-2.7-2.2-5.7-2.1-8.8V81.5c-0.1-3.2,0.7-6.3,2.1-9.2
				c1.4-2.7,3.5-4.9,6-6.6c2.7-1.7,5.8-2.7,8.9-2.9l6.8-0.6c3-0.3,6.1,0.1,8.9,1.4c2.5,1.2,4.6,3.1,6,5.5c1.5,2.7,2.2,5.7,2.1,8.8
				v11.5c0.1,3.2-0.7,6.3-2.1,9.2c-1.4,2.7-3.5,4.9-6,6.6c-2.7,1.7-5.8,2.7-8.9,2.9l-6.8,0.6C167.6,109,164.5,108.6,161.7,107.3z
				 M177.4,100.3c2.4-0.2,4.6-1.3,6-3.2c1.6-2.1,2.4-4.6,2.3-7.2V79.1c0.1-2.5-0.7-4.9-2.3-6.8c-1.5-1.7-3.8-2.5-6-2.2l-6.8,0.6
				c-2.4,0.1-4.6,1.3-6,3.2c-1.6,2.1-2.4,4.6-2.3,7.2v10.8c-0.1,2.5,0.7,4.9,2.3,6.8c1.5,1.7,3.8,2.5,6,2.2L177.4,100.3z"/>
			<path class="st6" d="M213.3,59.7l7.9-0.7l14.6,25.3l14.3-27.9l7.9-0.7v44.8l-8.6,0.8V73L240,90.8c-0.5,1-1.1,1.9-1.9,2.6
				c-0.6,0.5-1.4,0.9-2.3,0.9l-2.4,0.2L222,75.3v28.3l-8.6,0.8L213.3,59.7z"/>
			<path class="st7" d="M147.9,186.1c-2.7-2.4-4-5.9-4-10.6l8.7-0.8c-0.1,1.8,0.5,3.7,1.7,5.1c1.3,1.2,3,1.7,4.7,1.5l7.1-0.6
				c1.6-0.1,3.2-0.6,4.6-1.6c1.1-0.7,1.8-2,1.8-3.3v-2.2c0-2.1-1.5-3.2-4.6-3.5l-11.8-0.9c-3.8-0.3-6.8-1.3-8.7-2.9
				c-2-1.6-3.1-4.1-3-6.7V156c0-2.2,0.6-4.3,1.8-6.1c1.3-1.9,3.1-3.4,5.2-4.4c2.4-1.2,5.1-1.9,7.8-2.1l7.2-0.6
				c2.5-0.3,5,0.1,7.4,1.1c2.1,0.9,3.8,2.4,5,4.4c1.2,2.1,1.8,4.6,1.8,7.1l-8.7,0.8c0.1-1.5-0.4-3-1.5-4.2c-1-1-2.5-1.5-3.9-1.3
				l-7.2,0.6c-1.6,0.1-3.1,0.6-4.3,1.5c-1,0.7-1.6,1.9-1.6,3.2v1.7c0,2.1,1.5,3.3,4.4,3.6l11.7,1c3.9,0.3,6.8,1.3,8.9,2.8
				c2,1.5,3.2,3.9,3.1,6.4v4.2c0,2.2-0.6,4.4-1.9,6.2c-1.3,1.9-3.2,3.5-5.3,4.5c-2.5,1.2-5.1,1.9-7.9,2.1l-7.4,0.6
				C154.2,189.4,150.6,188.4,147.9,186.1z"/>
			<path class="st7" d="M206.2,182.8c-2.5-1.2-4.5-3.1-5.8-5.5c-1.4-2.7-2.1-5.7-2.1-8.8v-11.8c-0.1-3.2,0.7-6.3,2.1-9.1
				c1.3-2.7,3.4-4.9,5.9-6.5c2.7-1.7,5.7-2.7,8.8-2.9l6.8-0.6c2.9-0.3,5.8,0.1,8.4,1.3c2.4,1.1,4.4,2.9,5.7,5.2
				c1.4,2.6,2.1,5.5,2,8.4l-8.7,0.8c0.1-2.2-0.6-4.3-2-6c-1.4-1.4-3.4-2.1-5.4-1.9l-6.8,0.6c-2.3,0.2-4.4,1.3-5.8,3.2
				c-1.5,2.1-2.3,4.6-2.2,7.1v11c-0.1,2.4,0.6,4.8,2.1,6.8c1.4,1.6,3.5,2.4,5.6,2.2l6.9-0.6c2.2-0.2,4.2-1.3,5.5-3.1
				c1.5-2.1,2.2-4.6,2.1-7.1l8.7-0.8c0.1,3.2-0.6,6.4-2,9.3c-1.3,2.7-3.3,4.9-5.8,6.6c-2.6,1.7-5.5,2.7-8.6,2.9l-6.9,0.6
				C211.9,184.5,208.9,184,206.2,182.8z"/>
			<path class="st7" d="M255.8,135.2l23.8-2.1c3.9-0.3,7,0.4,9.4,2.3c2.4,1.9,3.7,4.9,3.5,7.9v4.5c0,2.1-0.6,4.2-1.9,5.9
				c-1.4,1.9-3.3,3.3-5.5,4.2v0.1c1.2,0.7,2.3,1.6,3.1,2.8c0.9,1.5,1.6,3,2.1,4.6l3.6,11.1l-9.1,0.8l-3.4-10.3
				c-0.4-1.5-1.2-2.8-2.3-3.9c-1-0.8-2.3-1.2-3.6-1l-10.8,0.9v16.1l-8.8,0.8L255.8,135.2z M278,154.4c1.6-0.1,3.1-0.7,4.2-1.8
				c1-1,1.6-2.4,1.5-3.9v-4.2c0.1-1.1-0.4-2.1-1.1-2.9c-0.9-0.7-2-1-3.1-0.9l-14.9,1.3v13.4L278,154.4z"/>
			<path class="st7" d="M337.6,162.4l-16.8,1.5l-4,10.8l-9.2,0.8l17.5-46.3l4-0.4c2.8-0.2,4.6,0.9,5.6,3.4l15.9,39.6l-9.2,0.8
				L337.6,162.4z M323.2,156.3l12-1.1l-6-15.6h-0.1L323.2,156.3z"/>
			<path class="st7" d="M371.7,132.8l-14.2,1.2v-7.7l37.2-3.3v7.7l-14.2,1.3v37.1l-8.8,0.8V132.8z"/>
			<path class="st7" d="M416.2,164.4c-2.5-1.2-4.5-3.1-5.8-5.5c-1.4-2.7-2.1-5.7-2-8.8v-11.8c-0.1-3.2,0.7-6.3,2.1-9.1
				c1.3-2.7,3.4-4.9,5.9-6.5c2.7-1.7,5.7-2.7,8.8-2.9l6.8-0.6c2.9-0.3,5.8,0.1,8.5,1.3c2.4,1.1,4.4,2.9,5.7,5.2
				c1.4,2.6,2.1,5.5,2,8.4l-8.7,0.8c0.1-2.2-0.6-4.3-2-6c-1.4-1.4-3.4-2.1-5.4-1.9l-6.8,0.6c-2.3,0.2-4.4,1.3-5.8,3.2
				c-1.5,2.1-2.3,4.6-2.2,7.1v11c-0.1,2.4,0.6,4.8,2.1,6.8c1.4,1.6,3.5,2.4,5.6,2.2l6.9-0.6c2.2-0.2,4.2-1.3,5.5-3.1
				c1.5-2.1,2.2-4.6,2.1-7.1l8.7-0.8c0.1,3.2-0.6,6.4-2,9.3c-1.3,2.7-3.3,4.9-5.8,6.6c-2.6,1.7-5.5,2.7-8.6,2.9l-6.9,0.6
				C421.9,166.1,418.9,165.6,416.2,164.4z"/>
			<path class="st7" d="M465.8,116.9l8.8-0.8v18.5l20.9-1.8v-18.5l8.8-0.8v44.8l-8.8,0.8v-18.6l-20.9,1.8v18.6l-8.8,0.8V116.9z"/>
			<rect class="st8" width="566.9" height="254.2"/>
		</g>
	</g>
	<path class="st9" d="M529.3,92.5"/>
</g>
<g id="Outline">
	<polyline class="st9" points="529.9,93.2 529.9,173.8 529.9,173.8 127.9,208.9 127.9,130.1 30,138.8 30,58.3 284.9,35.8 
		284.9,114.4 289.5,114 294.1,113.6 294.2,113.6 530,93.1 	"/>
	<polyline class="st9" points="30,138.8 38.5,147.6 127.3,139.2 	"/>
	<polyline class="st9" points="127.9,208.9 137.2,218.6 538.5,183.4 	"/>
	<polyline class="st9" points="284.9,35.8 293.3,44.5 293.3,112.6 	"/>
	<polyline class="st9" points="529.7,173.7 538.5,183.4 538.8,101.9 530.3,93.1 	"/>
</g>
</svg>
